<mxfile host="app.diagrams.net" agent="Mozilla/5.0 (Windows NT 10.0; Win64; x64) AppleWebKit/537.36 (KHTML, like Gecko) Chrome/137.0.0.0 Safari/537.36" version="27.0.9">
  <diagram name="第 1 页" id="1FyKUF50gnVKBm6TfoI5">
    <mxGraphModel dx="1916" dy="1196" grid="0" gridSize="10" guides="1" tooltips="1" connect="1" arrows="1" fold="1" page="0" pageScale="1" pageWidth="827" pageHeight="1169" math="0" shadow="0">
      <root>
        <mxCell id="0" />
        <mxCell id="1" parent="0" />
        <mxCell id="yjoiWp7i4O6Tfu99-DzN-41" value="" style="rounded=1;whiteSpace=wrap;html=1;fillColor=#ffebee;strokeColor=#f44336;strokeWidth=2;fontSize=21;fontColor=#000000;opacity=60;" vertex="1" parent="1">
          <mxGeometry x="713" y="456" width="300" height="250" as="geometry" />
        </mxCell>
        <mxCell id="yjoiWp7i4O6Tfu99-DzN-42" value="" style="rounded=1;whiteSpace=wrap;html=1;fillColor=#e8f5e8;strokeColor=#4caf50;strokeWidth=2;fontSize=21;fontColor=#000000;opacity=60;" vertex="1" parent="1">
          <mxGeometry x="1163" y="456" width="300" height="250" as="geometry" />
        </mxCell>
        <mxCell id="yjoiWp7i4O6Tfu99-DzN-43" value="传统中心化模式" style="text;html=1;strokeColor=none;fillColor=none;align=center;verticalAlign=middle;whiteSpace=wrap;rounded=0;fontSize=21;fontStyle=1;fontColor=#000000;opacity=60;" vertex="1" parent="1">
          <mxGeometry x="713" y="426" width="300" height="30" as="geometry" />
        </mxCell>
        <mxCell id="yjoiWp7i4O6Tfu99-DzN-44" value="分布式模式" style="text;html=1;strokeColor=none;fillColor=none;align=center;verticalAlign=middle;whiteSpace=wrap;rounded=0;fontSize=21;fontStyle=1;fontColor=#000000;opacity=60;" vertex="1" parent="1">
          <mxGeometry x="1163" y="426" width="300" height="30" as="geometry" />
        </mxCell>
        <mxCell id="yjoiWp7i4O6Tfu99-DzN-45" value="VS" style="ellipse;whiteSpace=wrap;html=1;fillColor=#ff9800;strokeColor=#f57c00;fontSize=21;fontStyle=1;fontColor=#000000;opacity=60;" vertex="1" parent="1">
          <mxGeometry x="1063" y="556" width="60" height="40" as="geometry" />
        </mxCell>
        <mxCell id="yjoiWp7i4O6Tfu99-DzN-46" value="调度服务器" style="rounded=1;whiteSpace=wrap;html=1;fillColor=#f44336;strokeColor=#d32f2f;fontSize=21;fontColor=#000000;fontStyle=1;opacity=60;" vertex="1" parent="1">
          <mxGeometry x="813" y="536" width="100" height="60" as="geometry" />
        </mxCell>
        <mxCell id="yjoiWp7i4O6Tfu99-DzN-47" value="客户端1" style="rounded=1;whiteSpace=wrap;html=1;fillColor=#ffcdd2;strokeColor=#f44336;fontSize=21;fontColor=#000000;opacity=60;" vertex="1" parent="1">
          <mxGeometry x="735" y="481" width="78" height="29" as="geometry" />
        </mxCell>
        <mxCell id="yjoiWp7i4O6Tfu99-DzN-48" value="客户端2" style="rounded=1;whiteSpace=wrap;html=1;fillColor=#ffcdd2;strokeColor=#f44336;fontSize=21;fontColor=#000000;opacity=60;" vertex="1" parent="1">
          <mxGeometry x="917" y="481" width="79" height="30" as="geometry" />
        </mxCell>
        <mxCell id="yjoiWp7i4O6Tfu99-DzN-49" value="客户端3" style="rounded=1;whiteSpace=wrap;html=1;fillColor=#ffcdd2;strokeColor=#f44336;fontSize=21;fontColor=#000000;opacity=60;" vertex="1" parent="1">
          <mxGeometry x="733" y="624" width="77" height="30" as="geometry" />
        </mxCell>
        <mxCell id="yjoiWp7i4O6Tfu99-DzN-50" value="客户端4" style="rounded=1;whiteSpace=wrap;html=1;fillColor=#ffcdd2;strokeColor=#f44336;fontSize=21;fontColor=#000000;opacity=60;" vertex="1" parent="1">
          <mxGeometry x="915" y="624" width="83" height="30" as="geometry" />
        </mxCell>
        <mxCell id="yjoiWp7i4O6Tfu99-DzN-51" value="" style="endArrow=classic;html=1;rounded=0;strokeColor=#f44336;strokeWidth=2;fontSize=21;fontColor=#000000;opacity=60;" edge="1" parent="1" source="yjoiWp7i4O6Tfu99-DzN-47" target="yjoiWp7i4O6Tfu99-DzN-46">
          <mxGeometry width="50" height="50" relative="1" as="geometry">
            <mxPoint x="773" y="516" as="sourcePoint" />
            <mxPoint x="823" y="466" as="targetPoint" />
          </mxGeometry>
        </mxCell>
        <mxCell id="yjoiWp7i4O6Tfu99-DzN-52" value="" style="endArrow=classic;html=1;rounded=0;strokeColor=#f44336;strokeWidth=2;fontSize=21;fontColor=#000000;opacity=60;" edge="1" parent="1" source="yjoiWp7i4O6Tfu99-DzN-48" target="yjoiWp7i4O6Tfu99-DzN-46">
          <mxGeometry width="50" height="50" relative="1" as="geometry">
            <mxPoint x="953" y="516" as="sourcePoint" />
            <mxPoint x="903" y="466" as="targetPoint" />
          </mxGeometry>
        </mxCell>
        <mxCell id="yjoiWp7i4O6Tfu99-DzN-53" value="" style="endArrow=classic;html=1;rounded=0;strokeColor=#f44336;strokeWidth=2;fontSize=21;fontColor=#000000;opacity=60;" edge="1" parent="1" source="yjoiWp7i4O6Tfu99-DzN-49" target="yjoiWp7i4O6Tfu99-DzN-46">
          <mxGeometry width="50" height="50" relative="1" as="geometry">
            <mxPoint x="773" y="636" as="sourcePoint" />
            <mxPoint x="823" y="586" as="targetPoint" />
          </mxGeometry>
        </mxCell>
        <mxCell id="yjoiWp7i4O6Tfu99-DzN-54" value="" style="endArrow=classic;html=1;rounded=0;strokeColor=#f44336;strokeWidth=2;fontSize=21;fontColor=#000000;opacity=60;" edge="1" parent="1" source="yjoiWp7i4O6Tfu99-DzN-50" target="yjoiWp7i4O6Tfu99-DzN-46">
          <mxGeometry width="50" height="50" relative="1" as="geometry">
            <mxPoint x="953" y="636" as="sourcePoint" />
            <mxPoint x="903" y="586" as="targetPoint" />
          </mxGeometry>
        </mxCell>
        <mxCell id="yjoiWp7i4O6Tfu99-DzN-55" value="⚠️ 单点故障" style="text;html=1;strokeColor=#f44336;fillColor=#ffebee;align=center;verticalAlign=middle;whiteSpace=wrap;rounded=1;fontSize=21;fontColor=#000000;fontStyle=1;opacity=60;" vertex="1" parent="1">
          <mxGeometry x="729" y="664" width="123" height="38" as="geometry" />
        </mxCell>
        <mxCell id="yjoiWp7i4O6Tfu99-DzN-56" value="⚠️ 一致性难题" style="text;html=1;strokeColor=#f44336;fillColor=#ffebee;align=center;verticalAlign=middle;whiteSpace=wrap;rounded=1;fontSize=21;fontColor=#000000;fontStyle=1;opacity=60;" vertex="1" parent="1">
          <mxGeometry x="857" y="664" width="142" height="37" as="geometry" />
        </mxCell>
        <mxCell id="yjoiWp7i4O6Tfu99-DzN-57" value="节点1" style="rounded=1;whiteSpace=wrap;html=1;fillColor=#4caf50;strokeColor=#388e3c;fontSize=21;fontColor=#000000;fontStyle=1;opacity=60;" vertex="1" parent="1">
          <mxGeometry x="1187" y="492" width="70" height="50" as="geometry" />
        </mxCell>
        <mxCell id="yjoiWp7i4O6Tfu99-DzN-58" value="节点2" style="rounded=1;whiteSpace=wrap;html=1;fillColor=#66bb6a;strokeColor=#4caf50;fontSize=21;fontColor=#000000;fontStyle=1;opacity=60;" vertex="1" parent="1">
          <mxGeometry x="1370" y="492" width="70" height="50" as="geometry" />
        </mxCell>
        <mxCell id="yjoiWp7i4O6Tfu99-DzN-59" value="节点3" style="rounded=1;whiteSpace=wrap;html=1;fillColor=#66bb6a;strokeColor=#4caf50;fontSize=21;fontColor=#000000;fontStyle=1;opacity=60;" vertex="1" parent="1">
          <mxGeometry x="1280" y="610" width="70" height="50" as="geometry" />
        </mxCell>
        <mxCell id="yjoiWp7i4O6Tfu99-DzN-64" value="" style="endArrow=classic;startArrow=classic;html=1;rounded=0;strokeColor=#4caf50;strokeWidth=2;fontSize=21;fontColor=#000000;opacity=60;" edge="1" parent="1" source="yjoiWp7i4O6Tfu99-DzN-57" target="yjoiWp7i4O6Tfu99-DzN-58">
          <mxGeometry width="50" height="50" relative="1" as="geometry">
            <mxPoint x="1283" y="531" as="sourcePoint" />
            <mxPoint x="1333" y="481" as="targetPoint" />
          </mxGeometry>
        </mxCell>
        <mxCell id="yjoiWp7i4O6Tfu99-DzN-65" value="" style="endArrow=classic;startArrow=classic;html=1;rounded=0;strokeColor=#4caf50;strokeWidth=2;fontSize=21;fontColor=#000000;opacity=60;" edge="1" parent="1" source="yjoiWp7i4O6Tfu99-DzN-57" target="yjoiWp7i4O6Tfu99-DzN-59">
          <mxGeometry width="50" height="50" relative="1" as="geometry">
            <mxPoint x="1248" y="556" as="sourcePoint" />
            <mxPoint x="1298" y="506" as="targetPoint" />
          </mxGeometry>
        </mxCell>
        <mxCell id="yjoiWp7i4O6Tfu99-DzN-66" value="" style="endArrow=classic;startArrow=classic;html=1;rounded=0;strokeColor=#4caf50;strokeWidth=2;fontSize=21;fontColor=#000000;opacity=60;" edge="1" parent="1" source="yjoiWp7i4O6Tfu99-DzN-58" target="yjoiWp7i4O6Tfu99-DzN-59">
          <mxGeometry width="50" height="50" relative="1" as="geometry">
            <mxPoint x="1348" y="556" as="sourcePoint" />
            <mxPoint x="1298" y="576" as="targetPoint" />
          </mxGeometry>
        </mxCell>
        <mxCell id="yjoiWp7i4O6Tfu99-DzN-71" value="✅ 高可用" style="text;html=1;strokeColor=#4caf50;fillColor=#e8f5e8;align=center;verticalAlign=middle;whiteSpace=wrap;rounded=1;fontSize=21;fontColor=#000000;fontStyle=1;opacity=60;" vertex="1" parent="1">
          <mxGeometry x="1187" y="668" width="112" height="36" as="geometry" />
        </mxCell>
        <mxCell id="yjoiWp7i4O6Tfu99-DzN-72" value="✅ 数据一致" style="text;html=1;strokeColor=#4caf50;fillColor=#e8f5e8;align=center;verticalAlign=middle;whiteSpace=wrap;rounded=1;fontSize=21;fontColor=#000000;fontStyle=1;opacity=60;" vertex="1" parent="1">
          <mxGeometry x="1317" y="666" width="129" height="36" as="geometry" />
        </mxCell>
        <mxCell id="yjoiWp7i4O6Tfu99-DzN-75" value="" style="fillColor=none;strokeColor=none;" vertex="1" parent="1">
          <mxGeometry x="1309" y="1132" width="1541" height="493" as="geometry" />
        </mxCell>
        <mxCell id="yjoiWp7i4O6Tfu99-DzN-76" value="" style="rounded=1;whiteSpace=wrap;html=1;fillColor=#ffebee;strokeColor=#f44336;strokeWidth=2;opacity=15;" vertex="1" parent="1">
          <mxGeometry x="1551" y="456" width="350" height="280" as="geometry" />
        </mxCell>
        <mxCell id="yjoiWp7i4O6Tfu99-DzN-77" value="" style="rounded=1;whiteSpace=wrap;html=1;fillColor=#e8f5e8;strokeColor=#4caf50;strokeWidth=2;opacity=15;" vertex="1" parent="1">
          <mxGeometry x="2001" y="456" width="350" height="280" as="geometry" />
        </mxCell>
        <mxCell id="yjoiWp7i4O6Tfu99-DzN-78" value="传统中心化模式" style="text;html=1;strokeColor=none;fillColor=none;align=center;verticalAlign=middle;whiteSpace=wrap;rounded=0;fontSize=18;fontStyle=1;fontColor=#d32f2f;" vertex="1" parent="1">
          <mxGeometry x="1551" y="426" width="350" height="30" as="geometry" />
        </mxCell>
        <mxCell id="yjoiWp7i4O6Tfu99-DzN-79" value="分布式模式" style="text;html=1;strokeColor=none;fillColor=none;align=center;verticalAlign=middle;whiteSpace=wrap;rounded=0;fontSize=18;fontStyle=1;fontColor=#388e3c;" vertex="1" parent="1">
          <mxGeometry x="2001" y="426" width="350" height="30" as="geometry" />
        </mxCell>
        <mxCell id="yjoiWp7i4O6Tfu99-DzN-80" value="VS" style="ellipse;whiteSpace=wrap;html=1;fillColor=#ff9800;strokeColor=#f57c00;fontSize=20;fontStyle=1;fontColor=white;" vertex="1" parent="1">
          <mxGeometry x="1921" y="576" width="60" height="40" as="geometry" />
        </mxCell>
        <mxCell id="yjoiWp7i4O6Tfu99-DzN-81" value="调度服务器" style="rounded=1;whiteSpace=wrap;html=1;fillColor=#f44336;strokeColor=#d32f2f;fontSize=14;fontColor=white;fontStyle=1;" vertex="1" parent="1">
          <mxGeometry x="1676" y="566" width="100" height="60" as="geometry" />
        </mxCell>
        <mxCell id="yjoiWp7i4O6Tfu99-DzN-82" value="客户端1" style="rounded=1;whiteSpace=wrap;html=1;fillColor=#ffcdd2;strokeColor=#f44336;fontSize=12;fontColor=#d32f2f;" vertex="1" parent="1">
          <mxGeometry x="1581" y="496" width="70" height="35" as="geometry" />
        </mxCell>
        <mxCell id="yjoiWp7i4O6Tfu99-DzN-83" value="客户端2" style="rounded=1;whiteSpace=wrap;html=1;fillColor=#ffcdd2;strokeColor=#f44336;fontSize=12;fontColor=#d32f2f;" vertex="1" parent="1">
          <mxGeometry x="1801" y="496" width="70" height="35" as="geometry" />
        </mxCell>
        <mxCell id="yjoiWp7i4O6Tfu99-DzN-84" value="客户端3" style="rounded=1;whiteSpace=wrap;html=1;fillColor=#ffcdd2;strokeColor=#f44336;fontSize=12;fontColor=#d32f2f;" vertex="1" parent="1">
          <mxGeometry x="1581" y="666" width="70" height="35" as="geometry" />
        </mxCell>
        <mxCell id="yjoiWp7i4O6Tfu99-DzN-85" value="客户端4" style="rounded=1;whiteSpace=wrap;html=1;fillColor=#ffcdd2;strokeColor=#f44336;fontSize=12;fontColor=#d32f2f;" vertex="1" parent="1">
          <mxGeometry x="1801" y="666" width="70" height="35" as="geometry" />
        </mxCell>
        <mxCell id="yjoiWp7i4O6Tfu99-DzN-86" value="" style="endArrow=classic;html=1;rounded=0;strokeColor=#f44336;strokeWidth=2;" edge="1" parent="1" source="yjoiWp7i4O6Tfu99-DzN-82" target="yjoiWp7i4O6Tfu99-DzN-81">
          <mxGeometry width="50" height="50" relative="1" as="geometry">
            <mxPoint x="1616" y="531" as="sourcePoint" />
            <mxPoint x="1676" y="566" as="targetPoint" />
          </mxGeometry>
        </mxCell>
        <mxCell id="yjoiWp7i4O6Tfu99-DzN-87" value="" style="endArrow=classic;html=1;rounded=0;strokeColor=#f44336;strokeWidth=2;" edge="1" parent="1" source="yjoiWp7i4O6Tfu99-DzN-83" target="yjoiWp7i4O6Tfu99-DzN-81">
          <mxGeometry width="50" height="50" relative="1" as="geometry">
            <mxPoint x="1836" y="531" as="sourcePoint" />
            <mxPoint x="1776" y="566" as="targetPoint" />
          </mxGeometry>
        </mxCell>
        <mxCell id="yjoiWp7i4O6Tfu99-DzN-88" value="" style="endArrow=classic;html=1;rounded=0;strokeColor=#f44336;strokeWidth=2;" edge="1" parent="1" source="yjoiWp7i4O6Tfu99-DzN-84" target="yjoiWp7i4O6Tfu99-DzN-81">
          <mxGeometry width="50" height="50" relative="1" as="geometry">
            <mxPoint x="1616" y="666" as="sourcePoint" />
            <mxPoint x="1676" y="626" as="targetPoint" />
          </mxGeometry>
        </mxCell>
        <mxCell id="yjoiWp7i4O6Tfu99-DzN-89" value="" style="endArrow=classic;html=1;rounded=0;strokeColor=#f44336;strokeWidth=2;" edge="1" parent="1" source="yjoiWp7i4O6Tfu99-DzN-85" target="yjoiWp7i4O6Tfu99-DzN-81">
          <mxGeometry width="50" height="50" relative="1" as="geometry">
            <mxPoint x="1836" y="666" as="sourcePoint" />
            <mxPoint x="1776" y="626" as="targetPoint" />
          </mxGeometry>
        </mxCell>
        <mxCell id="yjoiWp7i4O6Tfu99-DzN-90" value="⚠️ 单点故障" style="text;html=1;strokeColor=#f44336;fillColor=#ffebee;align=center;verticalAlign=middle;whiteSpace=wrap;rounded=1;fontSize=12;fontColor=#d32f2f;fontStyle=1;opacity=80;" vertex="1" parent="1">
          <mxGeometry x="1571" y="706" width="90" height="25" as="geometry" />
        </mxCell>
        <mxCell id="yjoiWp7i4O6Tfu99-DzN-91" value="⚠️ 一致性难题" style="text;html=1;strokeColor=#f44336;fillColor=#ffebee;align=center;verticalAlign=middle;whiteSpace=wrap;rounded=1;fontSize=12;fontColor=#d32f2f;fontStyle=1;opacity=80;" vertex="1" parent="1">
          <mxGeometry x="1781" y="706" width="100" height="25" as="geometry" />
        </mxCell>
        <mxCell id="yjoiWp7i4O6Tfu99-DzN-92" value="Server1&#xa;(Leader)" style="rounded=1;whiteSpace=wrap;html=1;fillColor=#4caf50;strokeColor=#388e3c;fontSize=12;fontColor=white;fontStyle=1;" vertex="1" parent="1">
          <mxGeometry x="2051" y="516" width="80" height="55" as="geometry" />
        </mxCell>
        <mxCell id="yjoiWp7i4O6Tfu99-DzN-93" value="Server2&#xa;(Follower)" style="rounded=1;whiteSpace=wrap;html=1;fillColor=#66bb6a;strokeColor=#4caf50;fontSize=12;fontColor=white;" vertex="1" parent="1">
          <mxGeometry x="2181" y="516" width="80" height="55" as="geometry" />
        </mxCell>
        <mxCell id="yjoiWp7i4O6Tfu99-DzN-94" value="Server3&#xa;(Follower)" style="rounded=1;whiteSpace=wrap;html=1;fillColor=#66bb6a;strokeColor=#4caf50;fontSize=12;fontColor=white;" vertex="1" parent="1">
          <mxGeometry x="2116" y="596" width="80" height="55" as="geometry" />
        </mxCell>
        <mxCell id="yjoiWp7i4O6Tfu99-DzN-95" value="Agent1&#xa;(web)" style="rounded=1;whiteSpace=wrap;html=1;fillColor=#c8e6c9;strokeColor=#4caf50;fontSize=11;fontColor=#2e7d32;" vertex="1" parent="1">
          <mxGeometry x="2031" y="676" width="60" height="45" as="geometry" />
        </mxCell>
        <mxCell id="yjoiWp7i4O6Tfu99-DzN-96" value="Agent2&#xa;(db)" style="rounded=1;whiteSpace=wrap;html=1;fillColor=#c8e6c9;strokeColor=#4caf50;fontSize=11;fontColor=#2e7d32;" vertex="1" parent="1">
          <mxGeometry x="2101" y="676" width="60" height="45" as="geometry" />
        </mxCell>
        <mxCell id="yjoiWp7i4O6Tfu99-DzN-97" value="Agent3&#xa;(cache)" style="rounded=1;whiteSpace=wrap;html=1;fillColor=#c8e6c9;strokeColor=#4caf50;fontSize=11;fontColor=#2e7d32;" vertex="1" parent="1">
          <mxGeometry x="2171" y="676" width="60" height="45" as="geometry" />
        </mxCell>
        <mxCell id="yjoiWp7i4O6Tfu99-DzN-98" value="Agent4&#xa;(api)" style="rounded=1;whiteSpace=wrap;html=1;fillColor=#c8e6c9;strokeColor=#4caf50;fontSize=11;fontColor=#2e7d32;" vertex="1" parent="1">
          <mxGeometry x="2241" y="676" width="60" height="45" as="geometry" />
        </mxCell>
        <mxCell id="yjoiWp7i4O6Tfu99-DzN-99" value="Raft" style="endArrow=classic;startArrow=classic;html=1;rounded=0;strokeColor=#4caf50;strokeWidth=2;fontSize=10;fontColor=#388e3c;" edge="1" parent="1" source="yjoiWp7i4O6Tfu99-DzN-92" target="yjoiWp7i4O6Tfu99-DzN-93">
          <mxGeometry width="50" height="50" relative="1" as="geometry">
            <mxPoint x="2131" y="543" as="sourcePoint" />
            <mxPoint x="2181" y="543" as="targetPoint" />
          </mxGeometry>
        </mxCell>
        <mxCell id="yjoiWp7i4O6Tfu99-DzN-100" value="Raft" style="endArrow=classic;startArrow=classic;html=1;rounded=0;strokeColor=#4caf50;strokeWidth=2;fontSize=10;fontColor=#388e3c;" edge="1" parent="1" source="yjoiWp7i4O6Tfu99-DzN-92" target="yjoiWp7i4O6Tfu99-DzN-94">
          <mxGeometry width="50" height="50" relative="1" as="geometry">
            <mxPoint x="2091" y="571" as="sourcePoint" />
            <mxPoint x="2116" y="596" as="targetPoint" />
          </mxGeometry>
        </mxCell>
        <mxCell id="yjoiWp7i4O6Tfu99-DzN-101" value="Raft" style="endArrow=classic;startArrow=classic;html=1;rounded=0;strokeColor=#4caf50;strokeWidth=2;fontSize=10;fontColor=#388e3c;" edge="1" parent="1" source="yjoiWp7i4O6Tfu99-DzN-93" target="yjoiWp7i4O6Tfu99-DzN-94">
          <mxGeometry width="50" height="50" relative="1" as="geometry">
            <mxPoint x="2221" y="571" as="sourcePoint" />
            <mxPoint x="2196" y="596" as="targetPoint" />
          </mxGeometry>
        </mxCell>
        <mxCell id="yjoiWp7i4O6Tfu99-DzN-102" value="" style="endArrow=classic;html=1;rounded=0;strokeColor=#ff9800;strokeWidth=2;dashed=1;" edge="1" parent="1" source="yjoiWp7i4O6Tfu99-DzN-92" target="yjoiWp7i4O6Tfu99-DzN-95">
          <mxGeometry width="50" height="50" relative="1" as="geometry">
            <mxPoint x="2081" y="571" as="sourcePoint" />
            <mxPoint x="2061" y="676" as="targetPoint" />
          </mxGeometry>
        </mxCell>
        <mxCell id="yjoiWp7i4O6Tfu99-DzN-103" value="" style="endArrow=classic;html=1;rounded=0;strokeColor=#ff9800;strokeWidth=2;dashed=1;" edge="1" parent="1" source="yjoiWp7i4O6Tfu99-DzN-92" target="yjoiWp7i4O6Tfu99-DzN-96">
          <mxGeometry width="50" height="50" relative="1" as="geometry">
            <mxPoint x="2101" y="571" as="sourcePoint" />
            <mxPoint x="2131" y="676" as="targetPoint" />
          </mxGeometry>
        </mxCell>
        <mxCell id="yjoiWp7i4O6Tfu99-DzN-104" value="" style="endArrow=classic;html=1;rounded=0;strokeColor=#ff9800;strokeWidth=2;dashed=1;" edge="1" parent="1" source="yjoiWp7i4O6Tfu99-DzN-93" target="yjoiWp7i4O6Tfu99-DzN-97">
          <mxGeometry width="50" height="50" relative="1" as="geometry">
            <mxPoint x="2221" y="571" as="sourcePoint" />
            <mxPoint x="2201" y="676" as="targetPoint" />
          </mxGeometry>
        </mxCell>
        <mxCell id="yjoiWp7i4O6Tfu99-DzN-105" value="" style="endArrow=classic;html=1;rounded=0;strokeColor=#ff9800;strokeWidth=2;dashed=1;" edge="1" parent="1" source="yjoiWp7i4O6Tfu99-DzN-93" target="yjoiWp7i4O6Tfu99-DzN-98">
          <mxGeometry width="50" height="50" relative="1" as="geometry">
            <mxPoint x="2241" y="571" as="sourcePoint" />
            <mxPoint x="2271" y="676" as="targetPoint" />
          </mxGeometry>
        </mxCell>
        <mxCell id="yjoiWp7i4O6Tfu99-DzN-106" value="✅ 高可用" style="text;html=1;strokeColor=#4caf50;fillColor=#e8f5e8;align=center;verticalAlign=middle;whiteSpace=wrap;rounded=1;fontSize=12;fontColor=#388e3c;fontStyle=1;opacity=80;" vertex="1" parent="1">
          <mxGeometry x="2041" y="476" width="80" height="25" as="geometry" />
        </mxCell>
        <mxCell id="yjoiWp7i4O6Tfu99-DzN-107" value="✅ 数据一致" style="text;html=1;strokeColor=#4caf50;fillColor=#e8f5e8;align=center;verticalAlign=middle;whiteSpace=wrap;rounded=1;fontSize=12;fontColor=#388e3c;fontStyle=1;opacity=80;" vertex="1" parent="1">
          <mxGeometry x="2181" y="476" width="90" height="25" as="geometry" />
        </mxCell>
        <mxCell id="yjoiWp7i4O6Tfu99-DzN-108" value="✅ 负载均衡" style="text;html=1;strokeColor=#4caf50;fillColor=#e8f5e8;align=center;verticalAlign=middle;whiteSpace=wrap;rounded=1;fontSize=12;fontColor=#388e3c;fontStyle=1;opacity=80;" vertex="1" parent="1">
          <mxGeometry x="2111" y="731" width="90" height="25" as="geometry" />
        </mxCell>
        <mxCell id="yjoiWp7i4O6Tfu99-DzN-109" value="" style="rounded=1;whiteSpace=wrap;html=1;fillColor=#f5f5f5;strokeColor=#9e9e9e;strokeWidth=1;opacity=10;" vertex="1" parent="1">
          <mxGeometry x="1551" y="776" width="800" height="50" as="geometry" />
        </mxCell>
        <mxCell id="yjoiWp7i4O6Tfu99-DzN-110" value="图例：" style="text;html=1;strokeColor=none;fillColor=none;align=left;verticalAlign=middle;whiteSpace=wrap;rounded=0;fontSize=14;fontStyle=1;fontColor=#333333;" vertex="1" parent="1">
          <mxGeometry x="1561" y="786" width="60" height="30" as="geometry" />
        </mxCell>
        <mxCell id="yjoiWp7i4O6Tfu99-DzN-111" value="━━ Raft协议" style="text;html=1;strokeColor=none;fillColor=none;align=left;verticalAlign=middle;whiteSpace=wrap;rounded=0;fontSize=12;fontColor=#4caf50;" vertex="1" parent="1">
          <mxGeometry x="1631" y="786" width="100" height="30" as="geometry" />
        </mxCell>
        <mxCell id="yjoiWp7i4O6Tfu99-DzN-112" value="┅┅ 任务分发" style="text;html=1;strokeColor=none;fillColor=none;align=left;verticalAlign=middle;whiteSpace=wrap;rounded=0;fontSize=12;fontColor=#ff9800;" vertex="1" parent="1">
          <mxGeometry x="1741" y="786" width="100" height="30" as="geometry" />
        </mxCell>
        <mxCell id="yjoiWp7i4O6Tfu99-DzN-113" value="⚠️ 系统问题" style="text;html=1;strokeColor=none;fillColor=none;align=left;verticalAlign=middle;whiteSpace=wrap;rounded=0;fontSize=12;fontColor=#f44336;" vertex="1" parent="1">
          <mxGeometry x="1851" y="786" width="100" height="30" as="geometry" />
        </mxCell>
        <mxCell id="yjoiWp7i4O6Tfu99-DzN-114" value="✅ 系统优势" style="text;html=1;strokeColor=none;fillColor=none;align=left;verticalAlign=middle;whiteSpace=wrap;rounded=0;fontSize=12;fontColor=#4caf50;" vertex="1" parent="1">
          <mxGeometry x="1961" y="786" width="100" height="30" as="geometry" />
        </mxCell>
      </root>
    </mxGraphModel>
  </diagram>
</mxfile>
